<svg xmlns="http://www.w3.org/2000/svg" fill="none" viewBox="0 0 25 25"><path stroke="#000" stroke-linecap="round" stroke-linejoin="round" stroke-width="1.5" d="M4.5 14.462v-1.924A1.577 1.577 0 0 1 6.113 11h.661a4.334 4.334 0 0 1 4.034-3h3.384a4.334 4.334 0 0 1 4.034 3c.182.523.275 1.073.274 1.627v1.746A4.476 4.476 0 0 1 14.192 19h-3.384a4.334 4.334 0 0 1-4.034-3h-.661A1.577 1.577 0 0 1 4.5 14.462Z" clip-rule="evenodd"/><path stroke="#000" stroke-linecap="round" stroke-linejoin="round" stroke-width="1.5" d="M14.5 12.5a2 2 0 1 1-4 0 2 2 0 0 1 4 0Z" clip-rule="evenodd"/><path fill="#000" d="M13.25 5a.75.75 0 0 0-1.5 0h1.5Zm-1.5 3a.75.75 0 0 0 1.5 0h-1.5Zm-5.684 8.247a.75.75 0 1 0 1.416-.494l-1.416.494Zm.434-1.874.75.001v-.001H6.5Zm0-1.746h.75v-.001l-.75.001Zm.982-1.38a.75.75 0 1 0-1.416-.494l1.416.494Zm10.744-.997a.75.75 0 0 0 0 1.5v-1.5Zm.661.75v.75h.017l-.017-.75Zm1.613 1.538h.75v-.018l-.75.018Zm0 1.924.75.018v-.018h-.75ZM18.887 16l.017-.75h-.017V16Zm-.661-.75a.75.75 0 0 0 0 1.5v-1.5Zm-7.726.5a.75.75 0 0 0 0 1.5v-1.5Zm4 1.5a.75.75 0 0 0 0-1.5v1.5ZM11.75 5v3h1.5V5h-1.5ZM7.482 15.753a4.172 4.172 0 0 1-.232-1.379l-1.5-.002a5.671 5.671 0 0 0 .316 1.875l1.416-.494Zm-.232-1.38v-1.746h-1.5v1.746h1.5Zm0-1.747c0-.47.078-.936.232-1.38l-1.416-.493a5.671 5.671 0 0 0-.316 1.875l1.5-.002Zm10.976-.876h.661v-1.5h-.661v1.5Zm.678 0c.457-.01.835.35.846.806l1.5-.036a2.327 2.327 0 0 0-2.38-2.27l.034 1.5Zm.846.788v1.924h1.5v-1.924h-1.5Zm0 1.906a.827.827 0 0 1-.846.806l-.034 1.5a2.327 2.327 0 0 0 2.38-2.27l-1.5-.036Zm-.863.806h-.661v1.5h.661v-1.5Zm-8.387 2h4v-1.5h-4v1.5Z"/></svg>